<svg width="24" height="24" viewBox="0 0 24 24" fill="none" xmlns="http://www.w3.org/2000/svg">
<path fill-rule="evenodd" clip-rule="evenodd" d="M14.5 5.49998C14.5 3.567 12.933 2.00002 11 2.00002L10.8079 2.00517C8.96425 2.10487 7.49997 3.63145 7.49997 5.49998C7.49997 7.43302 9.067 9 11 9L11.192 8.9948C13.0357 8.89514 14.5 7.36856 14.5 5.49998ZM12 17C12 18.0929 12.2921 19.1175 12.8027 20H4V16.4C4 13.4922 6.23444 11.1212 9.03358 11.0045L9.24995 11H12.75C13.6609 11 14.5177 11.2387 15.2644 11.6585C13.3262 12.6531 12 14.6717 12 17ZM15.061 21.0451L18 19.25L20.9389 21.0451L20.1399 17.6953L22.7552 15.4549L19.3225 15.1797L18 12L16.6774 15.1797L13.2447 15.4549L15.8601 17.6953L15.061 21.0451Z" fill="#1C1C1C"/>
</svg>
