<svg width="354" height="227" viewBox="0 0 354 227" fill="none" xmlns="http://www.w3.org/2000/svg">
<g clip-path="url(#clip0_271_114)">
<rect width="354" height="227" rx="8" fill="#ECFF5A"/>
<path d="M339.234 183.385L322.374 176.405L276.681 157.481V282.331L428.403 345.15V220.299L339.234 183.385ZM411.542 275.745L322.374 238.83L293.542 226.886V178.322L322.374 190.266L339.234 197.246L411.542 227.197V275.745Z" stroke="#151515" stroke-width="0.4" stroke-linecap="round" stroke-linejoin="round"/>
<path d="M339.232 197.246V210.501L293.539 226.886V178.322L322.371 190.266L339.232 197.246Z" stroke="#151515" stroke-width="0.4" stroke-linecap="round" stroke-linejoin="round"/>
<path d="M411.843 241.381V276.69L322.674 239.776L293.842 227.831L339.535 211.447L411.843 241.381Z" stroke="#151515" stroke-width="0.4" stroke-linecap="round" stroke-linejoin="round"/>
<path d="M474.095 203.915L456.138 210.354L428.403 220.299L339.234 183.385L322.374 176.405L276.681 157.481L322.374 141.096L474.095 203.915Z" stroke="#151515" stroke-width="0.4" stroke-linecap="round" stroke-linejoin="round"/>
<path d="M-108.699 -31.9096L-136.686 -43.5099L-212.532 -74.9614V132.537L39.3147 236.94V29.4413L-108.699 -31.9096ZM11.3279 121.59L-136.686 60.2394L-184.545 40.3881V-40.3239L-136.686 -20.4727L-108.699 -8.87234L11.3279 40.9055V121.59Z" stroke="#151515" stroke-width="0.4" stroke-linecap="round" stroke-linejoin="round"/>
<path d="M11.8267 64.4789V123.161L-136.187 61.8103L-184.046 41.959L-108.2 14.7283L11.8267 64.4789Z" stroke="#151515" stroke-width="0.4" stroke-linecap="round" stroke-linejoin="round"/>
<path d="M115.161 2.21038L85.3537 12.9121L39.3147 29.4412L-108.699 -31.9098L-136.686 -43.5101L-212.532 -74.9616L-136.686 -102.192L115.161 2.21038Z" stroke="#151515" stroke-width="0.4" stroke-linecap="round" stroke-linejoin="round"/>
<path d="M115.162 2.21045V209.709L39.3154 236.94V29.4412L85.3548 12.9121L115.162 2.21045Z" stroke="#151515" stroke-width="0.4" stroke-linecap="round" stroke-linejoin="round"/>
</g>
<defs>
<clipPath id="clip0_271_114">
<rect width="354" height="227" rx="8" fill="white"/>
</clipPath>
</defs>
</svg>
