<svg width="29" height="32" viewBox="0 0 29 32" fill="none" xmlns="http://www.w3.org/2000/svg">
<path d="M11.5452 26.5251V24.9953V19.7742C11.5447 19.6526 11.5079 19.5335 11.4388 19.43C11.3696 19.3265 11.2709 19.2428 11.1535 19.188C9.72597 18.5132 8.58546 17.4136 7.9156 16.0664C7.24573 14.7191 7.08548 13.2025 7.46065 11.7608C7.83581 10.3191 8.72456 9.03604 9.98381 8.11832C11.2431 7.2006 12.7995 6.70157 14.4027 6.70157C16.0058 6.70157 17.5623 7.2006 18.8215 8.11832C20.0808 9.03604 20.9695 10.3191 21.3447 11.7608C21.7198 13.2025 21.5596 14.7191 20.8897 16.0664C20.2199 17.4136 19.0794 18.5132 17.6518 19.188C17.5341 19.2433 17.4351 19.3274 17.3655 19.4313C17.2959 19.5351 17.2586 19.6546 17.2574 19.7768V26.2534V31.9173L20.4644 25.5866C20.5926 25.3278 20.8097 25.1155 21.0819 24.9827C23.8998 23.6026 26.1374 21.3899 27.4382 18.6971C28.7389 16.0042 29.028 12.9862 28.2594 10.1237C27.4908 7.26125 25.7086 4.71908 23.1969 2.90219C20.6852 1.08531 17.5884 0.0982361 14.3999 0.0982361C11.2114 0.0982361 8.11465 1.08531 5.60295 2.90219C3.09124 4.71908 1.30912 7.26125 0.540493 10.1237C-0.228133 12.9862 0.0609591 16.0042 1.36171 18.6971C2.66247 21.3899 4.90006 23.6026 7.71799 24.9827C7.99108 25.116 8.20976 25.328 8.34089 25.5866L11.5452 31.9147V26.5251Z" fill="#151515"/>
</svg>
